# Alias OBJ Model File
# Exported from SketchUp, (c) 2000-2006 Google, Inc.
# File units = millimeters

mtllib RH_CoverV001R01.mtl

g Mesh1 Group1 Model

usemtl M_0135_DarkGray
v 25.4996 38.0004 1.36966e-011
vt -1.49608 0.413386
vn 1 -8.40482e-006 -1.69435e-005
v 25.5 38.0004 10.5
vt -1.49608 2.13052e-010
v 25.5 36.5004 10.5
vt -1.43702 2.04642e-010
v 25.5 36.0004 10
vt -1.41734 0.019685
v 25.5 36.0004 9
vt -1.41734 0.0590551
v 25.5 36.5004 8.5
vt -1.43702 0.0787402
v 25.5 36.5004 1.5
vt -1.43702 0.354331
v 25.4996 1.5 1.5
vt -0.0590551 0.354331
v 25.4996 1.5 8.5
vt -0.0590551 0.0787402
v 25.4996 2 9
vt -0.0787402 0.0590551
v 25.4996 2 10
vt -0.0787402 0.019685
v 25.4996 1.5 10.5
vt -0.0590551 2.70285e-010
v 25.4996 1.26475e-012 10.5
vt 1.29853e-010 2.61875e-010
v 25.4996 1.62425e-012 1.37022e-011
vt 1.29839e-010 0.413386
f 1/1/1 2/2/1 3/3/1 4/4/1 5/5/1 6/6/1 7/7/1 8/8/1 9/9/1 10/10/1 11/11/1 12/12/1 13/13/1 14/14/1 

v 7.5 38.0004 1.5
vt -0.708661 0.354331
vn 2.67478e-021 1 -1.88769e-014
v 18 38.0004 1.5
vt -0.295276 0.354331
v 18 38.0004 10.5
vt -0.295276 -2.80337e-014
vt -4.00166e-021 -2.80337e-014
vt -1.54557e-005 0.413386
v 1.69198e-014 38.0004 -4.22995e-015
vt -1.00394 0.413386
v -5.62301e-012 38.0004 10.5
vt -1.00394 -2.80337e-014
v 7.5 38.0004 10.5
vt -0.708661 -2.80337e-014
f 15/15/2 16/16/2 17/17/2 2/18/2 1/19/2 18/20/2 19/21/2 20/22/2 

vt -0.708661 1.49608
vn -5.3736e-013 1.75757e-016 1
v 18 36.5004 1.5
vt -0.295276 1.43702
vt -0.295276 1.49608
f 15/23/3 21/24/3 16/25/3

v 7.5 36.5004 1.5
vt -0.708661 1.43702
f 22/26/3 21/24/3 15/23/3

v 5 33.0004 1.5
vt -0.807087 1.29923
f 23/27/3 21/24/3 22/26/3

v 20.4996 33.0004 1.5
vt -0.196866 1.29923
f 24/28/3 21/24/3 23/27/3

vt -1.24673e-017 1.43702
f 24/28/3 7/29/3 21/24/3

vt -1.54557e-005 0.0590551
f 7/29/3 24/28/3 8/30/3

v 20.4996 5 1.5
vt -0.196866 0.19685
f 25/31/3 8/30/3 24/28/3

v 17.9996 1.5 1.5
vt -0.295291 0.0590551
f 8/30/3 25/31/3 26/32/3

v 5 5 1.5
vt -0.807087 0.19685
f 26/32/3 25/31/3 27/33/3

v 20.4996 5 1.10148e-011
vt -0.196866 0.413386
vn -5.82201e-014 1 -1.38778e-016
v 5 5 2.68602e-012
vt -0.807087 0.413386
vt -0.807087 0.354331
vt -0.196866 0.354331
f 28/34/4 29/35/4 27/36/4 25/37/4 

vt 0.196866 0.19685
vn 5.37324e-013 -1.38778e-016 -1
v 1.69198e-014 -4.71845e-017 -0
vt 1.00394 0
vt 0.807087 0.19685
f 28/38/5 30/39/5 29/40/5

vt 1.54557e-005 6.39488e-014
f 28/38/5 14/41/5 30/39/5

vt 1.54557e-005 1.49608
f 14/41/5 28/38/5 1/42/5

v 20.4996 33.0004 1.10106e-011
vt 0.196866 1.29923
f 31/43/5 1/42/5 28/38/5

vt 1.00394 1.49608
f 1/42/5 31/43/5 18/44/5

v 5 33.0004 2.68179e-012
vt 0.807087 1.29923
f 18/44/5 31/43/5 32/45/5

vt 0.807087 0.413386
vn 2.89275e-031 -1 1.38778e-016
vt 0.196866 0.413386
vt 0.196866 0.354331
vt 0.807087 0.354331
f 32/46/6 31/47/6 24/48/6 23/49/6 

vt 1.29923 0.413386
vn -1 -7.4858e-029 -5.37324e-013
vt 0.19685 0.413386
vt 0.19685 0.354331
vt 1.29923 0.354331
f 31/50/7 28/51/7 25/52/7 24/53/7 

vt -0.19685 0.413386
vn 1 7.4858e-029 5.37324e-013
vt -1.29923 0.413386
vt -1.29923 0.354331
vt -0.19685 0.354331
f 29/54/8 32/55/8 23/56/8 27/57/8 

f 29/40/5 30/39/5 32/45/5

f 18/44/5 32/45/5 30/39/5

v -0.000392576 1.5 1.5
vt 0.059046 0.35432
vn -1 9.08153e-006 -1.04005e-005
v -7.89591e-013 36.5004 1.5
vt 1.43701 0.35432
v -4.27507e-012 36.5004 8.5
vt 1.43701 0.0787297
v -4.8165e-012 36.0004 9
vt 1.41733 0.0590447
v -5.17182e-012 36.0004 10
vt 1.41733 0.0196746
v -5.62301e-012 36.5004 10.5
vt 1.43701 -1.04416e-005
vt 1.49607 -1.04416e-005
vt 1.49607 0.413375
vt -9.11729e-006 0.413375
v -0.000392576 1.40998e-015 10.5
vt -9.11743e-006 -1.04416e-005
v -0.000392576 1.5 10.5
vt 0.059046 -1.04416e-005
v -0.000392576 2 10
vt 0.078731 0.0196746
v -0.000392576 2 9
vt 0.078731 0.0590447
v -0.000392576 1.5 8.5
vt 0.059046 0.0787297
f 33/58/9 34/59/9 35/60/9 36/61/9 37/62/9 38/63/9 19/64/9 18/65/9 30/66/9 39/67/9 40/68/9 41/69/9 42/70/9 43/71/9 

vt -1.00395 0.0590551
vt -1.00394 1.43702
f 33/72/3 27/33/3 34/73/3

v 7.49961 1.5 1.5
vt -0.708677 0.0590551
f 44/74/3 27/33/3 33/72/3

f 26/32/3 27/33/3 44/74/3

v 7.49961 1.62446e-012 1.5
vt -0.708677 6.39619e-014
f 26/32/3 44/74/3 45/75/3

vt -2.43998e-013 0.354331
vn 1 2.54064e-013 5.37782e-013
vt -0.0590551 0.354331
v 7.49961 1.5 8.5
vt -0.0590551 0.0787402
v 7.49961 2 9
vt -0.0787402 0.0590551
v 7.49961 2 10
vt -0.0787402 0.019685
v 7.49961 1.5 10.5
vt -0.0590551 -3.24332e-016
v 7.49961 1.26475e-012 10.5
vt -2.29788e-013 -3.24332e-016
f 45/76/10 44/77/10 46/78/10 47/79/10 48/80/10 49/81/10 50/82/10 

vt -1.00395 0.354331
vn -1.68446e-013 1 -1.38778e-016
vt -1.00395 0.0787402
vt -0.708677 0.0787402
vt -0.708677 0.354331
f 33/83/11 43/84/11 46/85/11 44/86/11 

vt -1.00395 0.0139194
vn 2.25844e-013 0.707107 -0.707107
vt -1.00395 -0.0139194
vt -0.708677 -0.0139194
vt -0.708677 0.0139194
f 43/87/12 42/88/12 47/89/12 46/90/12 

vt -1.00395 0.019685
vn -2.1793e-013 1 -1.38778e-016
vt -0.708677 0.019685
vt -0.708677 0.0590551
vt -1.00395 0.0590551
f 41/91/13 48/92/13 47/93/13 42/94/13 

vt -1.00395 0.0695971
vn -5.34044e-013 0.707107 0.707107
vt -1.00395 0.0417583
vt -0.708677 0.0417583
vt -0.708677 0.0695971
f 41/95/14 40/96/14 49/97/14 48/98/14 

vt -1.00395 0.0590551
vn -5.37324e-013 1.38778e-016 1
vt -1.00395 0
vt -0.708677 4.9738e-014
vt -0.708677 0.0590551
f 40/99/15 39/100/15 50/101/15 49/102/15 

vt 1.54557e-005 0.413386
vn 3.39259e-014 -1 -2.51235e-014
vt 1.54557e-005 1.25651e-027
v 17.9996 1.40998e-015 10.5
vt 0.295291 2.53078e-028
v 18 1.60982e-016 1.5
vt 0.295276 0.354331
vt 0.708677 0.354331
vt 0.708677 1.86386e-027
vt 1.00395 8.60434e-028
vt 1.00394 0.413386
f 14/103/16 13/104/16 51/105/16 52/106/16 45/107/16 50/108/16 39/109/16 30/110/16 

v 17.9996 1.5 10.5
vt -0.295291 0.0590551
vt -0.295291 0
vt -1.54557e-005 4.9738e-014
vt -1.54557e-005 0.0590551
f 53/111/15 51/112/15 13/113/15 12/114/15 

v 17.9996 1.5 8.5
vt 0.0590794 0.0787348
vn -1 -8.23994e-005 -1.79888e-005
vt 0.0590794 0.354325
vt 2.43305e-005 0.354325
vt 2.43318e-005 -5.31194e-006
vt 0.0590794 -5.31186e-006
v 17.9996 2 10
vt 0.0787645 0.0196797
v 17.9996 2 9
vt 0.0787645 0.0590498
f 54/115/17 26/116/17 52/117/17 51/118/17 53/119/17 55/120/17 56/121/17 

vt -0.295291 0.354331
vn -1.68446e-013 1 -1.38778e-016
vt -0.295291 0.0787402
vt -1.54557e-005 0.0787402
vt -1.54557e-005 0.354331
f 26/122/18 54/123/18 9/124/18 8/125/18 

vt -0.295291 0.0139194
vt -0.295291 -0.0139194
vt -1.54557e-005 -0.0139194
vt -1.54557e-005 0.0139194
f 54/126/12 56/127/12 10/128/12 9/129/12 

vt -0.295291 0.019685
vt -1.54557e-005 0.019685
vt -1.54557e-005 0.0590551
vt -0.295291 0.0590551
f 55/130/13 11/131/13 10/132/13 56/133/13 

vt -0.295291 0.0695971
vt -0.295291 0.0417583
vt -1.54557e-005 0.0417583
vt -1.54557e-005 0.0695971
f 55/134/14 53/135/14 12/136/14 11/137/14 

vt -0.295276 1.3103e-017
f 45/75/3 52/138/3 26/32/3

f 23/27/3 34/73/3 27/33/3

f 23/27/3 22/26/3 34/73/3

vt 0.708661 0.354331
v 7.5 36.5004 8.5
vt 0.708661 0.0787402
vt 1.00394 0.0787402
vt 1.00394 0.354331
f 22/139/6 57/140/6 35/141/6 34/142/6 

vt -1.43702 0.0787402
vt -1.43702 0.354331
vt -1.49608 0.354331
vt -1.49608 0
v 7.5 36.5004 10.5
vt -1.43702 0
v 7.5 36.0004 10
vt -1.41734 0.019685
v 7.5 36.0004 9
vt -1.41734 0.0590551
f 57/143/8 22/144/8 15/145/8 20/146/8 58/147/8 59/148/8 60/149/8 

vt -0.708661 1.49608
vt -1.00394 1.49608
f 58/26/15 20/150/15 19/151/15 38/73/15 

vt 0.708661 -0.988289
vn -3.79947e-013 -0.707107 0.707107
vt 0.708661 -1.01613
vt 1.00394 -1.01613
vt 1.00394 -0.988289
f 59/152/19 58/153/19 38/154/19 37/155/19 

vt 0.708661 0.019685
vt 1.00394 0.019685
vt 1.00394 0.0590551
vt 0.708661 0.0590551
f 59/156/6 37/157/6 36/158/6 60/159/6 

vt 0.708661 1.07181
vn 3.79947e-013 -0.707107 -0.707107
vt 0.708661 1.04397
vt 1.00394 1.04397
vt 1.00394 1.07181
f 57/160/20 60/161/20 36/162/20 35/163/20 

vt 0 0.354331
vt 0 0.0787402
v 18 36.5004 8.5
vt 0.295276 0.0787402
f 7/164/6 6/165/6 61/166/6 21/106/6 

vt -3.57395e-018 1.07181
vt -3.52499e-018 1.04397
v 18 36.0004 9
vt 0.295276 1.04397
vt 0.295276 1.07181
f 6/167/20 5/168/20 62/169/20 61/170/20 

vt 0 0.019685
v 18 36.0004 10
vt 0.295276 0.019685
vt 0.295276 0.0590551
vt 0 0.0590551
f 4/171/6 63/172/6 62/173/6 5/174/6 

vt 3.52499e-018 -0.988289
vt 3.57395e-018 -1.01613
v 18 36.5004 10.5
vt 0.295276 -1.01613
vt 0.295276 -0.988289
f 4/175/19 3/176/19 64/177/19 63/178/19 

vt 0 1.43702
vt 0 1.49608
vt -0.295276 1.49608
f 3/179/15 2/180/15 17/181/15 64/24/15 

vt 1.49608 0.354331
vn -1 -4.20724e-014 -5.32041e-013
vt 1.43702 0.354331
vt 1.43702 0.0787402
vt 1.41734 0.0590551
vt 1.41734 0.019685
vt 1.43702 1.55998e-015
vt 1.49608 1.55998e-015
f 16/182/21 21/183/21 61/184/21 62/185/21 63/186/21 64/187/21 17/188/21 

