# Alias OBJ Model File
# Exported from SketchUp, (c) 2000-2006 Google, Inc.
# File units = millimeters

mtllib OL_LinkA_v1.mtl

g Mesh1 link2_1 Model

usemtl FrontColor
v 2.60374 0.814217 -9.15784e-013
vt -1.07278 3.70389
vn 2.64469e-015 -1.39828e-015 1
v 4.17274 -0.0916496 -1.07379e-012
vt -0.455066 4.06053
v 4.42274 0.341363 -1.01448e-012
vt -0.35664 3.89006
v 4.94038 2.27321 -6.76175e-013
vt -0.152846 3.12948
v 4.57861 2.42307 -6.50179e-013
vt -0.295276 3.07049
v 4.26795 2.66144 -6.08496e-013
vt -0.417583 2.97664
v 4.02957 2.9721 -5.54212e-013
vt -0.511432 2.85433
v 3.87972 3.33387 -4.90939e-013
vt -0.570429 2.7119
v 3.82861 3.7221 -4.23171e-013
vt -0.590551 2.55906
v 3.87972 4.11033 -3.55404e-013
vt -0.570429 2.40621
v 4.02957 4.4721 -2.91602e-013
vt -0.511432 2.26378
v 4.26795 4.78276 -2.37406e-013
vt -0.417583 2.14147
v 4.57861 5.02114 -1.95547e-013
vt -0.295276 2.04762
v 4.94038 5.17099 -1.69639e-013
vt -0.152846 1.98863
v 5.32861 5.2221 -1.59945e-013
vt 7.231e-014 1.9685
v 5.71684 5.17099 -1.6955e-013
vt 0.152846 1.98863
v 6.07861 5.02114 -1.95459e-013
vt 0.295276 2.04762
v 6.38927 4.78276 -2.37318e-013
vt 0.417583 2.14147
v 6.62765 4.4721 -2.91426e-013
vt 0.511432 2.26378
v 6.7775 4.11033 -3.55228e-013
vt 0.570429 2.40621
v 6.82861 3.7221 -4.22995e-013
vt 0.590551 2.55906
v 6.7775 3.33387 -4.90762e-013
vt 0.570429 2.7119
v 6.62765 2.9721 -5.54035e-013
vt 0.511432 2.85433
v 6.38927 2.66144 -6.0832e-013
vt 0.417583 2.97664
v 6.07861 2.42307 -6.5009e-013
vt 0.295276 3.07049
v 5.71684 2.27321 -6.76175e-013
vt 0.152846 3.12948
v 6.23448 0.341363 -1.01439e-012
vt 0.35664 3.89006
v 6.48448 -0.0916496 -1.05793e-012
vt 0.455066 4.06053
v 8.05348 0.814217 -8.99657e-013
vt 1.07278 3.70389
v 7.80348 1.24723 -8.56124e-013
vt 0.97436 3.53341
v 8.3597 1.9721 -7.29049e-013
vt 1.19334 3.24803
v 8.70935 2.81624 -5.81706e-013
vt 1.331 2.9157
v 8.82861 3.7221 -4.22907e-013
vt 1.37795 2.55906
v 8.70935 4.62797 -2.63755e-013
vt 1.331 2.20241
v 8.3597 5.4721 -1.16324e-013
vt 1.19334 1.87008
v 7.82861 6.16423 5.11119e-015
vt 0.984252 1.59759
v 7.82861 14.28 6.96179e-015
vt 0.984252 -1.59759
v 8.3597 14.9721 -1.14121e-013
vt 1.19334 -1.87008
v 8.70935 15.8162 -2.61111e-013
vt 1.331 -2.20241
v 8.82861 16.7221 -4.19911e-013
vt 1.37795 -2.55906
v 8.70935 17.628 -5.78181e-013
vt 1.331 -2.9157
v 8.3597 18.4721 -7.25172e-013
vt 1.19334 -3.24803
v 7.80348 19.197 -8.51982e-013
vt 0.97436 -3.53341
v 8.05348 19.63 -9.39225e-013
vt 1.07278 -3.70389
v 6.48448 20.5359 -1.09706e-012
vt 0.455066 -4.06053
v 6.23448 20.1028 -1.00972e-012
vt 0.35664 -3.89006
v 5.71684 18.171 -6.72474e-013
vt 0.152846 -3.12948
v 6.07861 18.0211 -6.46477e-013
vt 0.295276 -3.07049
v 6.38927 17.7828 -6.04795e-013
vt 0.417583 -2.97664
v 6.62765 17.4721 -5.50687e-013
vt 0.511432 -2.85433
v 6.7775 17.1103 -4.8759e-013
vt 0.570429 -2.7119
v 6.82861 16.7221 -4.19999e-013
vt 0.590551 -2.55906
v 6.7775 16.3339 -3.52408e-013
vt 0.570429 -2.40621
v 6.62765 15.9721 -2.88782e-013
vt 0.511432 -2.26378
v 6.38927 15.6614 -2.34762e-013
vt 0.417583 -2.14147
v 6.07861 15.4231 -1.9308e-013
vt 0.295276 -2.04762
v 5.71684 15.2732 -1.67171e-013
vt 0.152846 -1.98863
v 5.32861 15.2221 -1.57654e-013
vt 7.231e-014 -1.9685
v 4.94038 15.2732 -1.67259e-013
vt -0.152846 -1.98863
v 4.57861 15.4231 -1.93168e-013
vt -0.295276 -2.04762
v 4.26795 15.6614 -2.3485e-013
vt -0.417583 -2.14147
v 4.02957 15.9721 -2.88958e-013
vt -0.511432 -2.26378
v 3.87972 16.3339 -3.52584e-013
vt -0.570429 -2.40621
v 3.82861 16.7221 -4.20175e-013
vt -0.590551 -2.55906
v 3.87972 17.1103 -4.87766e-013
vt -0.570429 -2.7119
v 4.02957 17.4721 -5.50863e-013
vt -0.511432 -2.85433
v 4.26795 17.7828 -6.04971e-013
vt -0.417583 -2.97664
v 4.57861 18.0211 -6.46565e-013
vt -0.295276 -3.07049
v 4.94038 18.171 -6.72474e-013
vt -0.152846 -3.12948
v 4.42274 20.1028 -1.00981e-012
vt -0.35664 -3.89006
v 4.17274 20.5359 -1.06956e-012
vt -0.455066 -4.06053
v 2.60374 19.63 -9.11995e-013
vt -1.07278 -3.70389
v 2.85374 19.197 -8.52247e-013
vt -0.97436 -3.53341
v 2.29752 18.4721 -7.25525e-013
vt -1.19334 -3.24803
v 1.94787 17.628 -5.78534e-013
vt -1.331 -2.9157
v 1.82861 16.7221 -4.20263e-013
vt -1.37795 -2.55906
v 1.94787 15.8162 -2.61464e-013
vt -1.331 -2.20241
v 2.29752 14.9721 -1.14385e-013
vt -1.19334 -1.87008
v 2.82861 14.28 6.69742e-015
vt -0.984252 -1.59759
v 2.82861 6.16423 4.84682e-015
vt -0.984252 1.59759
v 2.29752 5.4721 -1.16588e-013
vt -1.19334 1.87008
v 1.94787 4.62797 -2.64107e-013
vt -1.331 2.20241
v 1.82861 3.7221 -4.23259e-013
vt -1.37795 2.55906
v 1.94787 2.81624 -5.82059e-013
vt -1.331 2.9157
v 2.29752 1.9721 -7.29402e-013
vt -1.19334 3.24803
v 2.85374 1.24723 -8.56389e-013
vt -0.97436 3.53341
f 1/1/1 2/2/1 3/3/1 4/4/1 5/5/1 6/6/1 7/7/1 8/8/1 9/9/1 10/10/1 11/11/1 12/12/1 13/13/1 14/14/1 15/15/1 16/16/1 17/17/1 18/18/1 19/19/1 20/20/1 21/21/1 22/22/1 23/23/1 24/24/1 25/25/1 26/26/1 27/27/1 28/28/1 29/29/1 30/30/1 31/31/1 32/32/1 33/33/1 34/34/1 35/35/1 36/36/1 37/37/1 38/38/1 39/39/1 40/40/1 41/41/1 42/42/1 43/43/1 44/44/1 45/45/1 46/46/1 47/47/1 48/48/1 49/49/1 50/50/1 51/51/1 52/52/1 53/53/1 54/54/1 55/55/1 56/56/1 57/57/1 58/58/1 59/59/1 60/60/1 61/61/1 62/62/1 63/63/1 64/64/1 65/65/1 66/66/1 67/67/1 68/68/1 69/69/1 70/70/1 71/71/1 72/72/1 73/73/1 74/74/1 75/75/1 76/76/1 77/77/1 78/78/1 79/79/1 80/80/1 81/81/1 82/82/1 83/83/1 84/84/1 85/85/1 86/86/1 

v 2.60374 0.814217 -2
vt 0.922887 0.590551
vn -0.5 -0.866025 -1.17021e-013
v 4.17274 -0.0916496 -2
vt 1.63617 0.590551
vt 1.63617 -0.19685
vt 0.922887 -0.19685
f 87/87/2 88/88/2 2/89/2 1/90/2 

v 7.82861 6.16423 -2
vt -0.984252 1.59759
vn -3.13839e-015 -1.33421e-015 -1
v 8.3597 5.4721 -2
vt -1.19334 1.87008
v 8.70935 4.62797 -2
vt -1.331 2.20241
v 8.82861 3.7221 -2
vt -1.37795 2.55906
v 8.70935 2.81624 -2
vt -1.331 2.9157
v 8.3597 1.9721 -2
vt -1.19334 3.24803
v 7.80348 1.24723 -2
vt -0.97436 3.53341
v 8.05348 0.814217 -2
vt -1.07278 3.70389
v 6.48448 -0.0916496 -2
vt -0.455066 4.06053
v 6.23448 0.341363 -2
vt -0.35664 3.89006
v 5.71684 2.27321 -2
vt -0.152846 3.12948
v 6.07861 2.42307 -2
vt -0.295276 3.07049
v 6.38927 2.66144 -2
vt -0.417583 2.97664
v 6.62765 2.9721 -2
vt -0.511432 2.85433
v 6.7775 3.33387 -2
vt -0.570429 2.7119
v 6.82861 3.7221 -2
vt -0.590551 2.55906
v 6.7775 4.11033 -2
vt -0.570429 2.40621
v 6.62765 4.4721 -2
vt -0.511432 2.26378
v 6.38927 4.78276 -2
vt -0.417583 2.14147
v 6.07861 5.02114 -2
vt -0.295276 2.04762
v 5.71684 5.17099 -2
vt -0.152846 1.98863
v 5.32861 5.2221 -2
vt -9.60003e-014 1.9685
v 4.94038 5.17099 -2
vt 0.152846 1.98863
v 4.57861 5.02114 -2
vt 0.295276 2.04762
v 4.26795 4.78276 -2
vt 0.417583 2.14147
v 4.02957 4.4721 -2
vt 0.511432 2.26378
v 3.87972 4.11033 -2
vt 0.570429 2.40621
v 3.82861 3.7221 -2
vt 0.590551 2.55906
v 3.87972 3.33387 -2
vt 0.570429 2.7119
v 4.02957 2.9721 -2
vt 0.511432 2.85433
v 4.26795 2.66144 -2
vt 0.417583 2.97664
v 4.57861 2.42307 -2
vt 0.295276 3.07049
v 4.94038 2.27321 -2
vt 0.152846 3.12948
v 4.42274 0.341363 -2
vt 0.35664 3.89006
vt 0.455066 4.06053
vt 1.07278 3.70389
v 2.85374 1.24723 -2
vt 0.97436 3.53341
v 2.29752 1.9721 -2
vt 1.19334 3.24803
v 1.94787 2.81624 -2
vt 1.331 2.9157
v 1.82861 3.7221 -2
vt 1.37795 2.55906
v 1.94787 4.62797 -2
vt 1.331 2.20241
v 2.29752 5.4721 -2
vt 1.19334 1.87008
v 2.82861 6.16423 -2
vt 0.984252 1.59759
v 2.82861 14.28 -2
vt 0.984252 -1.59759
v 2.29752 14.9721 -2
vt 1.19334 -1.87008
v 1.94787 15.8162 -2
vt 1.331 -2.20241
v 1.82861 16.7221 -2
vt 1.37795 -2.55906
v 1.94787 17.628 -2
vt 1.331 -2.9157
v 2.29752 18.4721 -2
vt 1.19334 -3.24803
v 2.85374 19.197 -2
vt 0.97436 -3.53341
v 2.60374 19.63 -2
vt 1.07278 -3.70389
v 4.17274 20.5359 -2
vt 0.455066 -4.06053
v 4.42274 20.1028 -2
vt 0.35664 -3.89006
v 4.94038 18.171 -2
vt 0.152846 -3.12948
v 4.57861 18.0211 -2
vt 0.295276 -3.07049
v 4.26795 17.7828 -2
vt 0.417583 -2.97664
v 4.02957 17.4721 -2
vt 0.511432 -2.85433
v 3.87972 17.1103 -2
vt 0.570429 -2.7119
v 3.82861 16.7221 -2
vt 0.590551 -2.55906
v 3.87972 16.3339 -2
vt 0.570429 -2.40621
v 4.02957 15.9721 -2
vt 0.511432 -2.26378
v 4.26795 15.6614 -2
vt 0.417583 -2.14147
v 4.57861 15.4231 -2
vt 0.295276 -2.04762
v 4.94038 15.2732 -2
vt 0.152846 -1.98863
v 5.32861 15.2221 -2
vt -1.06658e-013 -1.9685
v 5.71684 15.2732 -2
vt -0.152846 -1.98863
v 6.07861 15.4231 -2
vt -0.295276 -2.04762
v 6.38927 15.6614 -2
vt -0.417583 -2.14147
v 6.62765 15.9721 -2
vt -0.511432 -2.26378
v 6.7775 16.3339 -2
vt -0.570429 -2.40621
v 6.82861 16.7221 -2
vt -0.590551 -2.55906
v 6.7775 17.1103 -2
vt -0.570429 -2.7119
v 6.62765 17.4721 -2
vt -0.511432 -2.85433
v 6.38927 17.7828 -2
vt -0.417583 -2.97664
v 6.07861 18.0211 -2
vt -0.295276 -3.07049
v 5.71684 18.171 -2
vt -0.152846 -3.12948
v 6.23448 20.1028 -2
vt -0.35664 -3.89006
v 6.48448 20.5359 -2
vt -0.455066 -4.06053
v 8.05348 19.63 -2
vt -1.07278 -3.70389
v 7.80348 19.197 -2
vt -0.97436 -3.53341
v 8.3597 18.4721 -2
vt -1.19334 -3.24803
v 8.70935 17.628 -2
vt -1.331 -2.9157
v 8.82861 16.7221 -2
vt -1.37795 -2.55906
v 8.70935 15.8162 -2
vt -1.331 -2.20241
v 8.3597 14.9721 -2
vt -1.19334 -1.87008
v 7.82861 14.28 -2
vt -0.984252 -1.59759
f 89/91/3 90/92/3 91/93/3 92/94/3 93/95/3 94/96/3 95/97/3 96/98/3 97/99/3 98/100/3 99/101/3 100/102/3 101/103/3 102/104/3 103/105/3 104/106/3 105/107/3 106/108/3 107/109/3 108/110/3 109/111/3 110/112/3 111/113/3 112/114/3 113/115/3 114/116/3 115/117/3 116/118/3 117/119/3 118/120/3 119/121/3 120/122/3 121/123/3 122/124/3 88/125/3 87/126/3 123/127/3 124/128/3 125/129/3 126/130/3 127/131/3 128/132/3 129/133/3 130/134/3 131/135/3 132/136/3 133/137/3 134/138/3 135/139/3 136/140/3 137/141/3 138/142/3 139/143/3 140/144/3 141/145/3 142/146/3 143/147/3 144/148/3 145/149/3 146/150/3 147/151/3 148/152/3 149/153/3 150/154/3 151/155/3 152/156/3 153/157/3 154/158/3 155/159/3 156/160/3 157/161/3 158/162/3 159/163/3 160/164/3 161/165/3 162/166/3 163/167/3 164/168/3 165/169/3 166/170/3 167/171/3 168/172/3 169/173/3 170/174/3 171/175/3 172/176/3 

vt -2.21009 0.590551
vn 0.866025 0.5 5.64937e-014
vt -1.86663 0.590551
vn 0.793353 0.608761 6.87684e-014
vt -1.86663 -0.19685
vt -2.21009 -0.19685
f 90/177/4 89/178/5 36/179/5 35/180/4 

vt 1.59759 -0.19685
vn 1 9.79473e-013 2.29546e-014
vt -1.59759 -0.19685
vt -1.59759 0.590551
vt 1.59759 0.590551
f 37/181/6 36/182/6 89/183/6 172/184/6 

vt 1.86663 0.590551
vn 0.793353 -0.608761 1.75753e-013
vt 2.21009 0.590551
vn 0.866025 -0.5 1.42658e-013
vt 2.21009 -0.19685
vt 1.86663 -0.19685
f 172/185/7 171/186/8 38/187/8 37/188/7 

vt 2.1844 0.590551
vt 2.54412 0.590551
vn 0.965926 -0.258819 6.92296e-014
vt 2.54412 -0.19685
vt 2.1844 -0.19685
f 171/189/8 170/190/9 39/191/9 38/192/8 

vt 2.3573 0.590551
vt 2.71702 0.590551
vn 1 9.86044e-013 2.3091e-014
vt 2.71702 -0.19685
vt 2.3573 -0.19685
f 170/193/9 169/194/10 40/195/10 39/196/9 

vt 2.3573 0.590551
vt 2.71702 0.590551
vn 0.965926 0.258819 6.66738e-015
vt 2.71702 -0.19685
vt 2.3573 -0.19685
f 169/197/10 168/198/11 41/199/11 40/200/10 

vt 2.1844 0.590551
vt 2.54412 0.590551
vn 0.866025 0.5 -5.25165e-014
vt 2.54412 -0.19685
vt 2.1844 -0.19685
f 168/201/11 167/202/12 42/203/12 41/204/11 

vt 1.85038 0.590551
vt 2.21009 0.590551
vn 0.793353 0.608761 -1.01721e-013
vt 2.21009 -0.19685
vt 1.85038 -0.19685
f 167/205/12 166/206/13 43/207/13 42/208/12 

vt 3.74406 0.590551
vn 0.866025 -0.5 1.6309e-013
vt 3.74406 -0.19685
vt 3.54721 -0.19685
vt 3.54721 0.590551
f 165/209/14 44/210/14 43/211/14 166/212/14 

vt 0.922887 0.590551
vn 0.5 0.866025 -1.75177e-013
vt 1.63617 0.590551
vt 1.63617 -0.19685
vt 0.922887 -0.19685
f 165/213/15 164/214/15 45/215/15 44/216/15 

vt -3.74406 -0.19685
vn -0.866025 0.5 -1.02324e-013
vt -3.74406 0.590551
vt -3.54721 0.590551
vt -3.54721 -0.19685
f 45/217/16 164/218/16 163/219/16 46/220/16 

vt -3.84981 0.590551
vn -0.965926 0.258819 -7.99765e-014
vt -3.06241 0.590551
vt -3.06241 -0.19685
vt -3.84981 -0.19685
f 163/221/17 162/222/17 47/223/17 46/224/17 

vt -1.05639 0.590551
vn -0.382683 -0.92388 1.63745e-013
vt -0.902226 0.590551
vn -0.5 -0.866025 1.25522e-013
vt -0.902226 -0.19685
vt -1.05639 -0.19685
f 162/225/18 161/226/19 48/227/19 47/228/18 

vt -1.63494 0.590551
vt -1.48077 0.590551
vn -0.707107 -0.707107 6.0387e-014
vt -1.48077 -0.19685
vt -1.63494 -0.19685
f 161/229/19 160/230/20 49/231/20 48/232/19 

vt -2.10732 0.590551
vt -1.95315 0.590551
vn -0.866025 -0.5 1.78981e-014
vt -1.95315 -0.19685
vt -2.10732 -0.19685
f 160/233/20 159/234/21 50/235/21 49/236/20 

vt -2.44134 0.590551
vt -2.28718 0.590551
vn -0.965926 -0.258819 -1.43748e-015
vt -2.28718 -0.19685
vt -2.44134 -0.19685
f 159/237/21 158/238/22 51/239/22 50/240/21 

vt -2.61424 0.590551
vt -2.46008 0.590551
vn -1 -1.00087e-012 -2.72021e-014
vt -2.46008 -0.19685
vt -2.61424 -0.19685
f 158/241/22 157/242/23 52/243/23 51/244/22 

vt -2.61424 0.590551
vt -2.46008 0.590551
vn -0.965926 0.258819 -6.16196e-014
vt -2.46008 -0.19685
vt -2.61424 -0.19685
f 157/245/23 156/246/24 53/247/24 52/248/23 

vt -2.44134 0.590551
vt -2.28718 0.590551
vn -0.866025 0.5 -9.82261e-014
vt -2.28718 -0.19685
vt -2.44134 -0.19685
f 156/249/24 155/250/25 54/251/25 53/252/24 

vt -2.10732 0.590551
vt -1.95315 0.590551
vn -0.707107 0.707107 -1.14554e-013
vt -1.95315 -0.19685
vt -2.10732 -0.19685
f 155/253/25 154/254/26 55/255/26 54/256/25 

vt -1.63494 0.590551
vt -1.48077 0.590551
vn -0.5 0.866025 -8.93015e-014
vt -1.48077 -0.19685
vt -1.63494 -0.19685
f 154/257/26 153/258/27 56/259/27 55/260/26 

vt -1.05639 0.590551
vt -0.902226 0.590551
vn -0.258819 0.965926 -9.18851e-014
vt -0.902226 -0.19685
vt -1.05639 -0.19685
f 153/261/27 152/262/28 57/263/28 56/264/27 

vt -0.411106 0.590551
vt -0.256941 0.590551
vn -1.17399e-012 1 -1.17674e-013
vt -0.256941 -0.19685
vt -0.411106 -0.19685
f 152/265/28 151/266/29 58/267/29 57/268/28 

vt 0.256941 0.590551
vt 0.411106 0.590551
vn 0.258819 0.965926 -1.35495e-013
vt 0.411106 -0.19685
vt 0.256941 -0.19685
f 151/269/29 150/270/30 59/271/30 58/272/29 

vt 0.902226 0.590551
vt 1.05639 0.590551
vn 0.5 0.866025 -1.36958e-013
vt 1.05639 -0.19685
vt 0.902226 -0.19685
f 150/273/30 149/274/31 60/275/31 59/276/30 

vt 1.48077 0.590551
vt 1.63494 0.590551
vn 0.707107 0.707107 -9.73542e-014
vt 1.63494 -0.19685
vt 1.48077 -0.19685
f 149/277/31 148/278/32 61/279/32 60/280/31 

vt 1.95315 0.590551
vt 2.10732 0.590551
vn 0.866025 0.5 -4.24996e-014
vt 2.10732 -0.19685
vt 1.95315 -0.19685
f 148/281/32 147/282/33 62/283/33 61/284/32 

vt 2.28718 0.590551
vt 2.44134 0.590551
vn 0.965926 0.258819 -3.34629e-015
vt 2.44134 -0.19685
vt 2.28718 -0.19685
f 147/285/33 146/286/34 63/287/34 62/288/33 

vt 2.46008 0.590551
vt 2.61424 0.590551
vn 1 9.08134e-013 3.16215e-014
vt 2.61424 -0.19685
vt 2.46008 -0.19685
f 146/289/34 145/290/35 64/291/35 63/292/34 

vt 2.46008 0.590551
vt 2.61424 0.590551
vn 0.965926 -0.258819 7.6549e-014
vt 2.61424 -0.19685
vt 2.46008 -0.19685
f 145/293/35 144/294/36 65/295/36 64/296/35 

vt 2.28718 0.590551
vt 2.44134 0.590551
vn 0.866025 -0.5 8.96328e-014
vt 2.44134 -0.19685
vt 2.28718 -0.19685
f 144/297/36 143/298/37 66/299/37 65/300/36 

vt 1.95315 0.590551
vt 2.10732 0.590551
vn 0.707107 -0.707107 7.44658e-014
vt 2.10732 -0.19685
vt 1.95315 -0.19685
f 143/301/37 142/302/38 67/303/38 66/304/37 

vt 1.48077 0.590551
vt 1.63494 0.590551
vn 0.5 -0.866025 1.14907e-013
vt 1.63494 -0.19685
vt 1.48077 -0.19685
f 142/305/38 141/306/39 68/307/39 67/308/38 

vt 0.902226 0.590551
vt 1.05639 0.590551
vn 0.382683 -0.92388 1.57502e-013
vt 1.05639 -0.19685
vt 0.902226 -0.19685
f 141/309/39 140/310/40 69/311/40 68/312/39 

vt 3.06241 0.590551
vn 0.965926 0.258819 -2.67149e-015
vt 3.84981 0.590551
vt 3.84981 -0.19685
vt 3.06241 -0.19685
f 140/313/41 139/314/41 70/315/41 69/316/41 

vt 3.74406 0.590551
vn 0.866025 0.5 4.5466e-015
vt 3.74406 -0.19685
vt 3.54721 -0.19685
vt 3.54721 0.590551
f 138/317/42 71/318/42 70/319/42 139/320/42 

vt -1.63617 0.590551
vn -0.5 0.866025 -1.20811e-013
vt -0.922887 0.590551
vt -0.922887 -0.19685
vt -1.63617 -0.19685
f 138/321/43 137/322/43 72/323/43 71/324/43 

vt -3.74406 -0.19685
vn -0.866025 -0.5 8.33039e-014
vt -3.74406 0.590551
vt -3.54721 0.590551
vt -3.54721 -0.19685
f 72/325/44 137/326/44 136/327/44 73/328/44 

vt -2.21009 0.590551
vn -0.793353 0.608761 -1.32369e-013
vt -1.85038 0.590551
vn -0.866025 0.5 -1.16534e-013
vt -1.85038 -0.19685
vt -2.21009 -0.19685
f 136/329/45 135/330/46 74/331/46 73/332/45 

vt -2.54412 0.590551
vt -2.1844 0.590551
vn -0.965926 0.258819 -6.83434e-014
vt -2.1844 -0.19685
vt -2.54412 -0.19685
f 135/333/46 134/334/47 75/335/47 74/336/46 

vt -2.71702 0.590551
vt -2.3573 0.590551
vn -1 -9.81089e-013 -1.82965e-014
vt -2.3573 -0.19685
vt -2.71702 -0.19685
f 134/337/47 133/338/48 76/339/48 75/340/47 

vt -2.71702 0.590551
vt -2.3573 0.590551
vn -0.965926 -0.258819 2.63634e-015
vt -2.3573 -0.19685
vt -2.71702 -0.19685
f 133/341/48 132/342/49 77/343/49 76/344/48 

vt -2.54412 0.590551
vt -2.1844 0.590551
vn -0.866025 -0.5 2.53697e-014
vt -2.1844 -0.19685
vt -2.54412 -0.19685
f 132/345/49 131/346/50 78/347/50 77/348/49 

vt -2.21009 0.590551
vt -1.86663 0.590551
vn -0.793353 -0.608761 4.56101e-014
vt -1.86663 -0.19685
vt -2.21009 -0.19685
f 131/349/50 130/350/51 79/351/51 78/352/50 

vt -1.59759 0.590551
vn -1 -9.72152e-013 -3.11095e-014
vt 1.59759 0.590551
vt 1.59759 -0.19685
vt -1.59759 -0.19685
f 130/353/52 129/354/52 80/355/52 79/356/52 

vt 1.86663 0.590551
vn -0.793353 0.608761 6.86832e-014
vt 2.21009 0.590551
vn -0.866025 0.5 5.64007e-014
vt 2.21009 -0.19685
vt 1.86663 -0.19685
f 129/357/53 128/358/54 81/359/54 80/360/53 

vt 2.1844 0.590551
vt 2.54412 0.590551
vn -0.965926 0.258819 2.91673e-014
vt 2.54412 -0.19685
vt 2.1844 -0.19685
f 128/361/54 127/362/55 82/363/55 81/364/54 

vt 2.3573 0.590551
vt 2.71702 0.590551
vn -1 -9.75798e-013 -5.37107e-017
vt 2.71702 -0.19685
vt 2.3573 -0.19685
f 127/365/55 126/366/56 83/367/56 82/368/55 

vt 2.3573 0.590551
vt 2.71702 0.590551
vn -0.965926 -0.258819 -2.92711e-014
vt 2.71702 -0.19685
vt 2.3573 -0.19685
f 126/369/56 125/370/57 84/371/57 83/372/56 

vt 2.1844 0.590551
vt 2.54412 0.590551
vn -0.866025 -0.5 -6.97708e-014
vt 2.54412 -0.19685
vt 2.1844 -0.19685
f 125/373/57 124/374/58 85/375/58 84/376/57 

vt 1.85038 0.590551
vt 2.21009 0.590551
vn -0.793353 -0.608761 -9.50954e-014
vt 2.21009 -0.19685
vt 1.85038 -0.19685
f 124/377/58 123/378/59 86/379/59 85/380/58 

vt 3.74406 0.590551
vn -0.866025 0.5 3.88612e-014
vt 3.74406 -0.19685
vt 3.54721 -0.19685
vt 3.54721 0.590551
f 87/381/60 1/382/60 86/383/60 123/384/60 

vt -2.54412 0.590551
vn 0.965926 0.258819 2.92711e-014
vt -2.1844 0.590551
vt -2.1844 -0.19685
vt -2.54412 -0.19685
f 91/385/61 90/386/4 35/387/4 34/388/61 

vt -2.71702 0.590551
vn 1 9.77548e-013 5.37107e-017
vt -2.3573 0.590551
vt -2.3573 -0.19685
vt -2.71702 -0.19685
f 92/389/62 91/390/61 34/391/61 33/392/62 

vt -2.71702 0.590551
vn 0.965926 -0.258819 -2.91673e-014
vt -2.3573 0.590551
vt -2.3573 -0.19685
vt -2.71702 -0.19685
f 93/393/63 92/394/62 33/395/62 32/396/63 

vt -2.54412 0.590551
vn 0.866025 -0.5 -4.92877e-014
vt -2.1844 0.590551
vt -2.1844 -0.19685
vt -2.54412 -0.19685
f 94/397/64 93/398/63 32/399/63 31/400/64 

vt -2.21009 0.590551
vn 0.793353 -0.608761 -5.45788e-014
vt -1.85038 0.590551
vt -1.85038 -0.19685
vt -2.21009 -0.19685
f 95/401/65 94/402/64 31/403/64 30/404/65 

vt -3.74406 -0.19685
vn 0.866025 0.5 8.70725e-014
vt -3.74406 0.590551
vt -3.54721 0.590551
vt -3.54721 -0.19685
f 29/405/66 96/406/66 95/407/66 30/408/66 

vt -1.63617 0.590551
vn 0.5 -0.866025 -8.75927e-014
vt -0.922887 0.590551
vt -0.922887 -0.19685
vt -1.63617 -0.19685
f 97/409/67 96/410/67 29/411/67 28/412/67 

vt 3.74406 0.590551
vn -0.866025 -0.5 -7.75985e-014
vt 3.74406 -0.19685
vt 3.54721 -0.19685
vt 3.54721 0.590551
f 97/413/68 28/414/68 27/415/68 98/416/68 

vt 3.06241 0.590551
vn -0.965926 -0.258819 -5.40414e-014
vt 3.84981 0.590551
vt 3.84981 -0.19685
vt 3.06241 -0.19685
f 99/417/69 98/418/69 27/419/69 26/420/69 

vt 0.902226 0.590551
vn -0.5 0.866025 9.77426e-014
vt 1.05639 0.590551
vn -0.382683 0.92388 1.0428e-013
vt 1.05639 -0.19685
vt 0.902226 -0.19685
f 100/421/70 99/422/71 26/423/71 25/424/70 

vt 1.48077 0.590551
vn -0.707107 0.707107 7.97904e-014
vt 1.63494 0.590551
vt 1.63494 -0.19685
vt 1.48077 -0.19685
f 101/425/72 100/426/70 25/427/70 24/428/72 

vt 1.95315 0.590551
vn -0.866025 0.5 5.64007e-014
vt 2.10732 0.590551
vt 2.10732 -0.19685
vt 1.95315 -0.19685
f 102/429/73 101/430/72 24/431/72 23/432/73 

vt 2.28718 0.590551
vn -0.965926 0.258819 2.91673e-014
vt 2.44134 0.590551
vt 2.44134 -0.19685
vt 2.28718 -0.19685
f 103/433/74 102/434/73 23/435/73 22/436/74 

vt 2.46008 0.590551
vn -1 -9.70143e-013 -5.37107e-017
vt 2.61424 0.590551
vt 2.61424 -0.19685
vt 2.46008 -0.19685
f 104/437/75 103/438/74 22/439/74 21/440/75 

vt 2.46008 0.590551
vn -0.965926 -0.258819 -2.92711e-014
vt 2.61424 0.590551
vt 2.61424 -0.19685
vt 2.46008 -0.19685
f 105/441/76 104/442/75 21/443/75 20/444/76 

vt 2.28718 0.590551
vn -0.866025 -0.5 -5.64937e-014
vt 2.44134 0.590551
vt 2.44134 -0.19685
vt 2.28718 -0.19685
f 106/445/77 105/446/76 20/447/76 19/448/77 

vt 1.95315 0.590551
vn -0.707107 -0.707107 -7.98664e-014
vt 2.10732 0.590551
vt 2.10732 -0.19685
vt 1.95315 -0.19685
f 107/449/78 106/450/77 19/451/77 18/452/78 

vt 1.48077 0.590551
vn -0.5 -0.866025 -9.77963e-014
vt 1.63494 0.590551
vt 1.63494 -0.19685
vt 1.48077 -0.19685
f 108/453/79 107/454/78 18/455/78 17/456/79 

vt 0.902226 0.590551
vn -0.258819 -0.965926 -1.09062e-013
vt 1.05639 0.590551
vt 1.05639 -0.19685
vt 0.902226 -0.19685
f 109/457/80 108/458/79 17/459/79 16/460/80 

vt 0.256941 0.590551
vn 9.4408e-013 -1 -1.12894e-013
vt 0.411106 0.590551
vt 0.411106 -0.19685
vt 0.256941 -0.19685
f 110/461/81 109/462/80 16/463/80 15/464/81 

vt -0.411106 0.590551
vn 0.258819 -0.965926 -1.09034e-013
vt -0.256941 0.590551
vt -0.256941 -0.19685
vt -0.411106 -0.19685
f 111/465/82 110/466/81 15/467/81 14/468/82 

vt -1.05639 0.590551
vn 0.5 -0.866025 -9.77426e-014
vt -0.902226 0.590551
vt -0.902226 -0.19685
vt -1.05639 -0.19685
f 112/469/83 111/470/82 14/471/82 13/472/83 

vt -1.63494 0.590551
vn 0.707107 -0.707107 -7.97904e-014
vt -1.48077 0.590551
vt -1.48077 -0.19685
vt -1.63494 -0.19685
f 113/473/84 112/474/83 13/475/83 12/476/84 

vt -2.10732 0.590551
vn 0.866025 -0.5 -5.64007e-014
vt -1.95315 0.590551
vt -1.95315 -0.19685
vt -2.10732 -0.19685
f 114/477/85 113/478/84 12/479/84 11/480/85 

vt -2.44134 0.590551
vn 0.965926 -0.258819 -2.91673e-014
vt -2.28718 0.590551
vt -2.28718 -0.19685
vt -2.44134 -0.19685
f 115/481/86 114/482/85 11/483/85 10/484/86 

vt -2.61424 0.590551
vn 1 9.92063e-013 5.37107e-017
vt -2.46008 0.590551
vt -2.46008 -0.19685
vt -2.61424 -0.19685
f 116/485/87 115/486/86 10/487/86 9/488/87 

vt -2.61424 0.590551
vn 0.965926 0.258819 2.92711e-014
vt -2.46008 0.590551
vt -2.46008 -0.19685
vt -2.61424 -0.19685
f 117/489/88 116/490/87 9/491/87 8/492/88 

vt -2.44134 0.590551
vn 0.866025 0.5 5.64937e-014
vt -2.28718 0.590551
vt -2.28718 -0.19685
vt -2.44134 -0.19685
f 118/493/89 117/494/88 8/495/88 7/496/89 

vt -2.10732 0.590551
vn 0.707107 0.707107 7.98664e-014
vt -1.95315 0.590551
vt -1.95315 -0.19685
vt -2.10732 -0.19685
f 119/497/90 118/498/89 7/499/89 6/500/90 

vt -1.63494 0.590551
vn 0.5 0.866025 9.77963e-014
vt -1.48077 0.590551
vt -1.48077 -0.19685
vt -1.63494 -0.19685
f 120/501/91 119/502/90 6/503/90 5/504/91 

vt -1.05639 0.590551
vn 0.382683 0.92388 1.04321e-013
vt -0.902226 0.590551
vt -0.902226 -0.19685
vt -1.05639 -0.19685
f 121/505/92 120/506/91 5/507/91 4/508/92 

vt -3.84981 0.590551
vn 0.965926 -0.258819 -7.1102e-015
vt -3.06241 0.590551
vt -3.06241 -0.19685
vt -3.84981 -0.19685
f 122/509/93 121/510/93 4/511/93 3/512/93 

vt -3.74406 -0.19685
vn 0.866025 -0.5 -3.85797e-014
vt -3.74406 0.590551
vt -3.54721 0.590551
vt -3.54721 -0.19685
f 2/513/94 88/514/94 122/515/94 3/516/94 

