# Alias OBJ Model File
# Exported from SketchUp, (c) 2000-2006 Google, Inc.
# File units = millimeters

mtllib AC_HEART_v001.mtl

g Mesh1 Group1 Model

usemtl FrontColor
v 22.1731 29.9433 -21
vt 1.45086 0.511811
vn 0.707107 -0.707107 7.37026e-014
v 22.1731 29.9433 -32.5
vt 1.45086 0.0590551
v 29.0817 36.8519 -32.5
vt 1.83551 0.0590551
v 29.0817 36.8519 -21
vt 1.83551 0.511811
f 1/1/1 2/2/1 3/3/1 4/4/1 

v 15.2645 36.8519 -21
vt -0.600966 0.511811
vn -0.707107 -0.707107 7.37026e-014
v 15.2645 36.8519 -32.5
vt -0.600966 0.0590551
vt -0.216313 0.0590551
vt -0.216313 0.511811
f 5/5/2 6/6/2 2/7/2 1/8/2 

v 6.90857 36.8519 -34
vt 0.271991 0
vn 0 -1 1.04231e-013
v 15.2645 36.8519 -34
vt 0.600966 0
vt 0.600966 0.0590551
vt 0.600966 0.511811
v 6.90857 36.8519 -21
vt 0.271991 0.511811
f 7/9/3 8/10/3 6/11/3 5/12/3 9/13/3 

vt -0.271991 1.45086
vn 0 -1.04231e-013 -1
v 15.6788 37.8519 -34
vt -0.617274 1.49023
vt -0.600966 1.45086
f 7/14/4 10/15/4 8/16/4

v 6.49435 37.8519 -34
vt -0.255683 1.49023
f 7/14/4 11/17/4 10/15/4

v 1 30.9433 -34
vt -0.0393701 1.21824
f 12/18/4 11/17/4 7/14/4

v 0 31.3575 -34
vt 0 1.23455
f 12/18/4 13/19/4 11/17/4

v 1.35358e-013 22.1731 -34
vt -5.32907e-015 0.872957
f 13/19/4 12/18/4 14/20/4

v 1 22.5873 -34
vt -0.0393701 0.889265
f 15/21/4 14/20/4 12/18/4

v 22.1731 0 -34
vt -0.872957 8.88178e-016
f 14/20/4 15/21/4 16/22/4

v 15.2645 8.32278 -34
vt -0.600966 0.327669
f 16/22/4 15/21/4 17/23/4

v 22.1731 1.41421 -21
vt -0.577904 0.511811
vn 0.707107 0.707107 -7.37925e-014
v 22.1731 1.41421 -25.5
vt -0.577904 0.334646
v 18.7188 4.8685 -25.5
vt -0.385577 0.334646
v 18.7188 4.8685 -32.5
vt -0.385577 0.0590551
v 15.2645 8.32278 -32.5
vt -0.193251 0.0590551
vt -0.193251 5.90266e-017
vt 0.600966 5.90266e-017
v 1 22.5873 -21
vt 0.600966 0.511811
f 18/24/5 19/25/5 20/26/5 21/27/5 22/28/5 17/29/5 15/30/5 23/31/5 

v 43.3462 22.5873 -34
vt -1.83551 9.69439e-017
vn -0.707107 0.707107 -7.35348e-014
v 29.0817 8.32278 -34
vt -1.0413 9.69439e-017
v 29.0817 8.32278 -32.5
vt -1.0413 0.0590551
v 25.6274 4.8685 -32.5
vt -0.84897 0.0590551
v 25.6274 4.8685 -25.5
vt -0.84897 0.334646
vt -0.656644 0.334646
vt -0.656644 0.511811
v 43.3462 22.5873 -21
vt -1.83551 0.511811
f 24/32/6 25/33/6 26/34/6 27/35/6 28/36/6 19/37/6 18/38/6 29/39/6 

v 44.3462 22.1731 -34
vt -1.74591 0.872957
vt -1.14495 0.327669
vt -1.70654 0.889265
f 30/40/4 25/41/4 24/42/4

f 16/22/4 25/41/4 30/40/4

v 28.6675 37.8519 -34
vt -1.12864 1.49023
f 16/22/4 31/43/4 25/41/4

v 22.1731 31.3575 -34
vt -0.872957 1.23455
f 16/22/4 32/44/4 31/43/4

f 16/22/4 10/15/4 32/44/4

f 16/22/4 17/23/4 10/15/4

f 8/16/4 10/15/4 17/23/4

vt -1.45086 1.79425e-015
vn -1 -3.11644e-017 2.98561e-015
vt -0.327669 1.79425e-015
vt -0.327669 0.0590551
v 15.2645 11.6711 -32.5
vt -0.459492 0.0590551
v 15.2645 17.6711 -32.5
vt -0.695712 0.0590551
vt -1.45086 0.0590551
f 8/45/7 17/46/7 22/47/7 33/48/7 34/49/7 6/50/7 

vt 1.00895 0.191673
vn -4.63445e-017 1.04232e-013 1
vt 1.14495 0.327669
vt 1.14495 1.45086
vt 0.872957 1.17887
vt 0.600966 1.45086
vt 0.600966 0.695712
vt 0.600966 0.459492
vt 0.600966 0.327669
vt 0.736962 0.191673
v 18.0117 4.16139 -32.5
vt 0.709123 0.163834
v 22.1731 1.56347e-013 -32.5
vt 0.872957 8.88151e-016
v 26.3345 4.16139 -32.5
vt 1.03679 0.163834
f 27/51/8 26/52/8 3/53/8 2/54/8 6/55/8 34/56/8 33/57/8 22/58/8 21/59/8 35/60/8 36/61/8 37/62/8 

vt 0.327669 0
vn 1 0 -0
v 29.0817 36.8519 -34
vt 1.45086 0
vt 1.45086 0.0590551
vt 0.327669 0.0590551
f 25/63/9 38/64/9 3/65/9 26/66/9 

vt -1.14495 1.45086
f 25/41/4 31/43/4 38/67/4

v 37.8519 37.8519 -34
vt -1.49023 1.49023
f 39/68/4 38/67/4 31/43/4

v 37.4377 36.8519 -34
vt -1.47392 1.45086
f 38/67/4 39/68/4 40/69/4

v 43.3462 30.9433 -34
vt -1.70654 1.21824
f 40/69/4 39/68/4 41/70/4

v 44.3462 31.3575 -34
vt -1.74591 1.23455
f 41/70/4 39/68/4 42/71/4

vt -0.361591 0
vn 0.707107 0.707107 -7.37026e-014
vt 8.65974e-015 0
v 37.8519 37.8519 -21
vt 8.65974e-015 0.511811
v 44.3462 31.3575 -21
vt -0.361591 0.511811
f 42/72/10 39/73/10 43/74/10 44/75/10 

vt -1.49023 -1.10211e-031
vn 1.22815e-015 1 -1.04231e-013
vt -1.12864 -1.10211e-031
v 28.6675 37.8519 -32.5
vt -1.12864 0.0590551
v 28.6675 37.8519 -21
vt -1.12864 0.511811
vt -1.49023 0.511811
f 39/76/11 31/77/11 45/78/11 46/79/11 43/80/11 

vt -1.85182 -4.80019e-017
vn -0.707107 0.707107 -7.35148e-014
vt -1.49023 -4.80019e-017
v 22.1731 31.3575 -21
vt -1.49023 0.511811
vt -1.85182 0.511811
vt -1.85182 0.0590551
f 31/81/12 32/82/12 47/83/12 46/84/12 45/85/12 

vt 0.617274 -2.68118e-016
vn 0.707107 0.707107 -7.35227e-014
v 15.6788 37.8519 -32.5
vt 0.617274 0.0590551
v 15.6788 37.8519 -21
vt 0.617274 0.511811
vt 0.255683 0.511811
vt 0.255683 -2.68118e-016
f 10/86/13 48/87/13 49/88/13 47/89/13 32/90/13 

vt -0.617274 0
vn 0 1 -1.04231e-013
vt -0.255683 0
v 6.49435 37.8519 -21
vt -0.255683 0.511811
vt -0.617274 0.511811
vt -0.617274 0.0590551
f 10/91/14 11/92/14 50/93/14 49/94/14 48/95/14 

vt -1.23455 0
vn -0.707107 0.707107 -7.37026e-014
vt -0.872957 0
v 0 31.3575 -21
vt -0.872957 0.511811
vt -1.23455 0.511811
f 11/96/15 13/97/15 51/98/15 50/99/15 

vt -1.23455 0
vn -1 -1.47379e-014 1.53614e-027
vt -0.872957 0
v 1.35358e-013 22.1731 -21
vt -0.872957 0.511811
vt -1.23455 0.511811
f 13/100/16 14/101/16 52/102/16 51/103/16 

vt 0.617274 0.0590551
vn -0.707107 -0.707107 7.2946e-014
vt 0.385577 0.0590551
v 18.0117 4.16139 -25.5
vt 0.385577 0.334646
v 22.1731 8.63405e-013 -25.5
vt 0.617274 0.334646
v 22.1731 1.34373e-012 -21
vt 0.617274 0.511811
vt -0.617274 0.511811
vt -0.617274 -4.67039e-016
vt 0.617274 -4.67039e-016
f 36/104/17 35/105/17 53/106/17 54/107/17 55/108/17 52/109/17 14/110/17 16/111/17 

vt 0.656644 0.0590551
vn 0.707107 -0.707107 7.37026e-014
vt 0.656644 0.334646
vt 0.617274 0.334646
vt 0.617274 0.0590551
f 21/112/18 20/113/18 53/114/18 35/115/18 

vt -0.872957 0
vt -0.709123 0.163834
vt -0.736962 0.191673
vt -0.872957 0.0556777
vt -1.00895 0.191673
v 26.3345 4.16139 -25.5
vt -1.03679 0.163834
f 54/116/4 53/117/4 20/118/4 19/119/4 28/120/4 56/121/4 

vt 0.577904 0.334646
vn -0.707107 -0.707107 7.37026e-014
vt 0.577904 0.0590551
vt 0.617274 0.0590551
vt 0.617274 0.334646
f 28/122/19 27/123/19 37/124/19 56/125/19 

vt 0.617274 0.0590551
vn 0.707107 -0.707107 7.35328e-014
vt 0.617274 1.04777e-016
vt 1.85182 1.04777e-016
v 44.3462 22.1731 -21
vt 1.85182 0.511811
vt 0.617274 0.511811
vt 0.617274 0.334646
vt 0.84897 0.334646
vt 0.84897 0.0590551
f 36/126/20 16/127/20 30/128/20 57/129/20 55/130/20 54/131/20 56/132/20 37/133/20 

vt 0.872957 0
vn 1 7.36893e-015 -7.68072e-028
vt 1.23455 0
vt 1.23455 0.511811
vt 0.872957 0.511811
f 30/134/21 42/135/21 44/136/21 57/137/21 

f 30/40/4 24/42/4 42/71/4

f 41/70/4 42/71/4 24/42/4

vt -1.21824 0
vn -1 -6.74958e-015 7.03517e-028
vt -0.889265 0
vt -0.889265 0.511811
v 43.3462 30.9433 -21
vt -1.21824 0.511811
f 41/138/22 24/139/22 29/140/22 58/141/22 

vt 1.74591 1.23455
vn 0 1.04231e-013 1
vt 1.70654 1.21824
vt 1.70654 0.889265
f 44/142/23 58/143/23 29/144/23

vt 1.49023 1.49023
f 43/145/23 58/143/23 44/142/23

v 37.4377 36.8519 -21
vt 1.47392 1.45086
f 43/145/23 59/146/23 58/143/23

f 43/145/23 4/53/23 59/146/23

vt 1.12864 1.49023
f 46/147/23 4/53/23 43/145/23

vt 0.872957 1.23455
f 47/148/23 4/53/23 46/147/23

f 47/148/23 1/54/23 4/53/23

vt 0.617274 1.49023
f 49/149/23 1/54/23 47/148/23

f 49/149/23 5/55/23 1/54/23

vt 0.271991 1.45086
f 49/149/23 9/150/23 5/55/23

vt 0.255683 1.49023
f 50/151/23 9/150/23 49/149/23

v 1 30.9433 -21
vt 0.0393701 1.21824
f 50/151/23 60/152/23 9/150/23

f 51/19/23 60/152/23 50/151/23

vt 5.32907e-015 0.872957
f 60/152/23 51/19/23 52/153/23

vt 0.0393701 0.889265
f 52/153/23 23/154/23 60/152/23

vt 0.872957 4.44089e-016
f 23/154/23 52/153/23 55/155/23

vt 0.872957 0.0556777
f 23/154/23 55/155/23 18/156/23

vt 1.74591 0.872957
f 18/156/23 55/155/23 57/157/23

f 18/156/23 57/157/23 29/144/23

f 29/144/23 57/157/23 44/142/23

vt 0.889265 0
vn 1 1.48491e-014 -1.54774e-027
vt 1.21824 0
vt 1.21824 0.511811
vt 0.889265 0.511811
f 15/158/24 12/159/24 60/160/24 23/161/24 

vt 0.889265 0
vn 0.707107 -0.707107 7.37026e-014
vt 1.21824 0
vt 1.21824 0.511811
vt 0.889265 0.511811
f 12/162/25 7/163/25 9/164/25 60/165/25 

vt 1.14495 8.94162e-032
vn -1.34992e-015 -1 1.04231e-013
vt 1.47392 8.94162e-032
vt 1.47392 0.511811
vt 1.14495 0.511811
vt 1.14495 0.0590551
f 38/166/26 40/167/26 59/168/26 4/169/26 3/170/26 

vt 0.0163076 0
vt 0.345283 0
vt 0.345283 0.511811
vt 0.0163076 0.511811
f 40/171/2 41/172/2 58/173/2 59/174/2 

g Mesh2 Group1 Model

v 16.7645 8.67109 -32.5
vt 0.660021 0.341382
vn -2.73783e-016 1.04291e-013 1
v 27.7645 8.67109 -32.5
vt 1.09309 0.341382
v 27.7645 14.6711 -32.5
vt 1.09309 0.577602
v 16.7645 14.6711 -32.5
vt 0.660021 0.577602
f 61/175/27 62/176/27 63/177/27 64/178/27 

vt 0.660021 0.0590551
vn 5.80165e-017 -1 1.04304e-013
vt 1.09309 0.0590551
v 27.7645 8.67109 -30.5
vt 1.09309 0.137795
v 18.7645 8.67109 -30.5
vt 0.738761 0.137795
v 18.7645 8.67109 -29
vt 0.738761 0.19685
v 25.7645 8.67109 -29
vt 1.01435 0.19685
v 25.7645 8.67109 -28
vt 1.01435 0.23622
v 16.7645 8.67109 -28
vt 0.660021 0.23622
f 61/179/28 62/180/28 65/181/28 66/182/28 67/183/28 68/184/28 69/185/28 70/186/28 

vt 0.341382 0.137795
vt 0.341382 0.0590551
vt 0.577602 0.0590551
v 27.7645 14.6711 -30.5
vt 0.577602 0.137795
f 65/187/9 62/188/9 63/189/9 71/190/9 

vt -0.660021 0.0590551
vn -1.30199e-016 1 -1.04411e-013
v 16.7645 14.6711 -28
vt -0.660021 0.23622
v 25.7645 14.6711 -28
vt -1.01435 0.23622
v 25.7645 14.6711 -29
vt -1.01435 0.19685
v 18.7645 14.6711 -29
vt -0.738761 0.19685
v 18.7645 14.6711 -30.5
vt -0.738761 0.137795
vt -1.09309 0.137795
vt -1.09309 0.0590551
f 64/191/29 72/192/29 73/193/29 74/194/29 75/195/29 76/196/29 71/197/29 63/198/29 

vt -0.577602 0.0590551
vn -1 0 -0
vt -0.341382 0.0590551
vt -0.341382 0.23622
vt -0.577602 0.23622
f 64/199/30 61/200/30 70/201/30 72/202/30 

vt 0.660021 0.577602
vn 1.05223e-017 1.04134e-013 1
vt 0.660021 0.341382
vt 1.01435 0.341382
vt 1.01435 0.577602
f 72/203/31 70/204/31 69/205/31 73/206/31 

vt 0.341382 0.19685
vn 1 4.17613e-029 4.02852e-016
vt 0.577602 0.19685
vt 0.577602 0.23622
vt 0.341382 0.23622
f 68/207/32 74/208/32 73/209/32 69/210/32 

vt -1.01435 0.577602
vn 4.02852e-016 -1.04134e-013 -1
vt -1.01435 0.341382
vt -0.738761 0.341382
vt -0.738761 0.577602
f 74/211/33 68/212/33 67/213/33 75/214/33 

vt 0.341382 0.137795
vn 1 -1.96646e-028 -1.87998e-015
vt 0.577602 0.137795
vt 0.577602 0.19685
vt 0.341382 0.19685
f 66/215/34 76/216/34 75/217/34 67/218/34 

vt 0.738761 0.577602
vn -3.1333e-016 1.04134e-013 1
vt 0.738761 0.341382
f 76/219/35 66/220/35 65/176/35 71/177/35 

g Mesh3 Group2 Model

v 36.8163 35.2661 -4
vt 0.0431572 0
vn -0.707107 -0.707107 7.37026e-014
v 41.8462 30.2362 -4
vt 0.32321 0
v 41.8462 30.2362 -1
vt 0.32321 0.11811
v 36.8163 35.2661 -1
vt 0.0431572 0.11811
f 77/221/36 78/222/36 79/223/36 80/224/36 

vt -1.44946 1.38843
v 37.3548 36.5661 -4
vt -1.47066 1.43961
vt -1.64749 1.1904
f 77/225/4 81/226/4 78/227/4

v 29.703 35.2661 -4
vt -1.16941 1.38843
f 82/228/4 81/226/4 77/225/4

v 29.1645 36.5661 -4
vt -1.14821 1.43961
f 82/228/4 83/229/4 81/226/4

v 22.1731 27.7362 -4
vt -0.872957 1.09198
f 84/230/4 83/229/4 82/228/4

v 22.1731 29.5747 -4
vt -0.872957 1.16436
f 84/230/4 85/231/4 83/229/4

v 15.1817 36.5661 -4
vt -0.597705 1.43961
f 84/230/4 86/232/4 85/231/4

v 14.6432 35.2661 -4
vt -0.576505 1.38843
f 87/233/4 86/232/4 84/230/4

v 7.52989 35.2661 -4
vt -0.296452 1.38843
f 88/234/4 86/232/4 87/233/4

v 6.99141 36.5661 -4
vt -0.275252 1.43961
f 88/234/4 89/235/4 86/232/4

v 2.5 30.2362 -4
vt -0.0984252 1.1904
f 90/236/4 89/235/4 88/234/4

v 1.2 30.7747 -4
vt -0.0472441 1.2116
f 90/236/4 91/237/4 89/235/4

v 1.2 22.5844 -4
vt -0.0472441 0.889149
f 92/238/4 91/237/4 90/236/4

v 0.9 22.5844 -4
vt -0.0354331 0.889149
f 93/239/4 91/237/4 92/238/4

v 0.9 30.7747 -4
vt -0.0354331 1.2116
f 91/237/4 93/239/4 94/240/4

vt -1.2116 0
vn -1 -1.51495e-014 1.57905e-027
vt -0.889149 0
v 0.9 22.5844 -1
vt -0.889149 0.11811
v 0.9 30.7747 -1
vt -1.2116 0.11811
f 94/241/37 93/242/37 95/243/37 96/244/37 

vt 0.0472441 -8.63759e-017
vn 1.51495e-014 -1 1.04134e-013
v 1.2 22.5844 -1
vt 0.0472441 0.11811
vt 0.0354331 0.11811
vt 0.0354331 -8.63759e-017
f 92/245/38 97/246/38 95/247/38 93/248/38 

vt -0.595317 0
vn -0.707107 -0.707107 7.37026e-014
v 22.1731 1.61127 -4
vt 0.572418 0
v 22.1731 1.61127 -1
vt 0.572418 0.11811
vt -0.595317 0.11811
f 92/249/39 98/250/39 99/251/39 97/252/39 

v 2.5 23.1229 -4
vt -0.0984252 0.910349
vt -0.872957 0.0634358
f 92/238/4 100/253/4 98/254/4

f 100/253/4 92/238/4 90/236/4

vt 0.910349 0
vn 1 1.42716e-014 -1.48755e-027
vt 1.1904 0
v 2.5 30.2362 -1
vt 1.1904 0.11811
v 2.5 23.1229 -1
vt 0.910349 0.11811
f 100/255/40 90/256/40 101/257/40 102/258/40 

vt 0.911338 0
vn 0.707107 -0.707107 7.37026e-014
vt 1.19139 0
v 7.52989 35.2661 -1
vt 1.19139 0.11811
vt 0.911338 0.11811
f 90/259/41 88/260/41 103/261/41 101/262/41 

vt 0.296452 0
vt 0.576505 0
v 14.6432 35.2661 -1
vt 0.576505 0.11811
vt 0.296452 0.11811
f 88/263/3 87/264/3 104/265/3 103/266/3 

vt -0.574117 0
vt -0.15487 0
v 22.1731 27.7362 -1
vt -0.15487 0.11811
vt -0.574117 0.11811
f 87/267/36 84/268/36 105/269/36 104/270/36 

vt 1.38942 0
vn 0.707107 -0.707107 7.37026e-014
vt 1.80866 0
v 29.703 35.2661 -1
vt 1.80866 0.11811
vt 1.38942 0.11811
f 84/271/42 82/272/42 106/273/42 105/274/42 

vt 1.16941 0
vn -1.58574e-015 -1 1.04231e-013
vt 1.44946 0
vt 1.44946 0.11811
vt 1.16941 0.11811
f 82/275/43 77/276/43 80/277/43 106/278/43 

v 41.8462 23.1229 -1
vt -1.64749 0.910349
v 22.1731 3.44975 -1
vt -0.872957 0.135817
f 102/253/4 101/236/4 103/234/4 104/233/4 105/230/4 106/228/4 80/225/4 79/227/4 107/279/4 108/280/4 

v 1.35358e-013 22.1731 -1
vt -5.32907e-015 0.872957
f 102/253/4 109/281/4 101/236/4

v 22.1731 1.35044e-012 -1
vt -0.872957 0
f 109/281/4 102/253/4 110/282/4

f 110/282/4 102/253/4 108/280/4

v 22.1731 3.44975 -4
vt -0.521237 0
vn 0.707107 0.707107 -7.37026e-014
vt 0.574117 0
vt 0.574117 0.11811
vt -0.521237 0.11811
f 111/283/44 100/284/44 102/285/44 108/286/44 

f 98/254/4 100/253/4 111/280/4

v 41.8462 23.1229 -4
f 98/254/4 111/280/4 112/279/4

vt -1.80866 0
vn -0.707107 0.707107 -7.37026e-014
vt -0.713311 0
vt -0.713311 0.11811
vt -1.80866 0.11811
f 112/287/45 111/288/45 108/289/45 107/290/45 

f 110/282/4 108/280/4 107/279/4

v 44.3462 22.1731 -1
f 110/282/4 107/279/4 113/40/4

v 44.3462 31.3575 -1
f 113/40/4 107/279/4 114/71/4

f 79/227/4 114/71/4 107/279/4

v 37.8519 37.8519 -1
f 79/227/4 115/68/4 114/71/4

f 80/225/4 115/68/4 79/227/4

f 106/228/4 115/68/4 80/225/4

v 28.6675 37.8519 -1
vt -1.12864 1.49023
f 106/228/4 116/291/4 115/68/4

f 105/230/4 116/291/4 106/228/4

v 22.1731 31.3575 -1
f 105/230/4 117/44/4 116/291/4

v 15.6788 37.8519 -1
f 105/230/4 118/15/4 117/44/4

f 104/233/4 118/15/4 105/230/4

f 103/234/4 118/15/4 104/233/4

v 6.49435 37.8519 -1
f 103/234/4 119/17/4 118/15/4

f 101/236/4 119/17/4 103/234/4

v 0 31.3575 -1
f 101/236/4 120/19/4 119/17/4

f 120/19/4 101/236/4 109/281/4

vt -1.23455 0.11811
vt -0.872957 0.11811
v 1.35358e-013 22.1731 -2.31942e-012
vt -0.872957 0.15748
v 0 31.3575 -3.2768e-012
vt -1.23455 0.15748
f 120/292/16 109/293/16 121/294/16 122/295/16 

vt -0.617274 0.11811
vn -0.707107 -0.707107 7.37026e-014
vt 0.617274 0.11811
v 22.1731 1.45467e-012 2.81997e-015
vt 0.617274 0.15748
vt -0.617274 0.15748
f 109/296/46 110/297/46 123/298/46 121/299/46 

vt 0.617274 0.11811
vn 0.707107 -0.707107 7.37026e-014
vt 1.85182 0.11811
v 44.3462 22.1731 -2.31942e-012
vt 1.85182 0.15748
vt 0.617274 0.15748
f 110/300/47 113/301/47 124/302/47 123/303/47 

vt 0.872957 0.11811
vt 1.23455 0.11811
v 44.3462 31.3575 -3.2768e-012
vt 1.23455 0.15748
vt 0.872957 0.15748
f 113/304/21 114/305/21 125/306/21 124/307/21 

vt -0.361591 0.11811
vt 7.99361e-015 0.11811
v 37.8519 37.8519 -3.95359e-012
vt 7.99361e-015 0.15748
vt -0.361591 0.15748
f 114/308/10 115/309/10 126/310/10 125/311/10 

vt -1.49023 0.11811
vt -1.12864 0.11811
v 28.6675 37.8519 -3.95359e-012
vt -1.12864 0.15748
vt -1.49023 0.15748
f 115/312/11 116/313/11 127/314/11 126/315/11 

vt -1.85182 0.11811
vn -0.707107 0.707107 -7.37026e-014
vt -1.49023 0.11811
v 22.1731 31.3575 -3.2768e-012
vt -1.49023 0.15748
vt -1.85182 0.15748
f 116/316/48 117/317/48 128/318/48 127/319/48 

vt 0.255683 0.11811
vt 0.617274 0.11811
v 15.6788 37.8519 -3.95359e-012
vt 0.617274 0.15748
vt 0.255683 0.15748
f 117/320/10 118/321/10 129/322/10 128/323/10 

vt -0.617274 0.11811
vt -0.255683 0.11811
v 6.49435 37.8519 -3.95359e-012
vt -0.255683 0.15748
vt -0.617274 0.15748
f 118/324/14 119/325/14 130/326/14 129/327/14 

vt -1.23455 0.11811
vt -0.872957 0.11811
vt -0.872957 0.15748
vt -1.23455 0.15748
f 119/328/15 120/329/15 122/330/15 130/331/15 

vt 0.872957 0
vt 1.74591 0.872957
vt 1.12864 1.49023
f 121/153/23 123/332/23 124/333/23 125/142/23 126/145/23 127/334/23 128/148/23 129/149/23 130/151/23 122/19/23 

vt -1.1904 0
vn -1 -7.92868e-015 8.26415e-028
vt -0.910349 0
vt -0.910349 0.11811
vt -1.1904 0.11811
f 78/335/49 112/336/49 107/337/49 79/338/49 

v 43.1462 30.7747 -4
vt -1.69867 1.2116
f 78/227/4 131/339/4 112/279/4

f 78/227/4 81/226/4 131/339/4

vt -0.34441 0
vn 0.707107 0.707107 -7.37026e-014
vt -0.0219573 0
v 37.3548 36.5661 -1
vt -0.0219573 0.11811
v 43.1462 30.7747 -1
vt -0.34441 0.11811
f 131/340/50 81/341/50 132/342/50 133/343/50 

vt -1.47066 0
vn 1.37722e-015 1 -1.04231e-013
vt -1.14821 0
v 29.1645 36.5661 -1
vt -1.14821 0.11811
vt -1.47066 0.11811
f 81/344/51 83/345/51 134/346/51 132/347/51 

vt -1.82986 0
vt -1.4406 0
v 22.1731 29.5747 -1
vt -1.4406 0.11811
vt -1.82986 0.11811
f 83/348/48 85/349/48 135/350/48 134/351/48 

vt 0.206051 0
vn 0.707107 0.707107 -7.37026e-014
vt 0.595317 0
v 15.1817 36.5661 -1
vt 0.595317 0.11811
vt 0.206051 0.11811
f 85/352/52 86/353/52 136/354/52 135/355/52 

vt -0.597705 0
vt -0.275252 0
v 6.99141 36.5661 -1
vt -0.275252 0.11811
vt -0.597705 0.11811
f 86/356/14 89/357/14 137/358/14 136/359/14 

vt -1.21259 0
vn -0.707107 0.707107 -7.37026e-014
vt -0.890138 0
v 1.2 30.7747 -1
vt -0.890138 0.11811
vt -1.21259 0.11811
f 89/360/53 91/361/53 138/362/53 137/363/53 

vt -0.0472441 0.11811
vn -1.51495e-014 1 -1.04134e-013
vt -0.0472441 -1.177e-016
vt -0.0354331 -1.177e-016
vt -0.0354331 0.11811
f 138/364/54 91/365/54 94/366/54 96/367/54 

vt 0.0472441 0.889149
vn 1.47169e-030 1.04134e-013 1
vt 0.0472441 1.2116
vt 0.0354331 1.2116
vt 0.0354331 0.889149
f 97/368/55 138/369/55 96/370/55 95/371/55 

vt -1.69867 -1.177e-016
vn -6.88612e-015 1 -1.04134e-013
vt -1.69867 0.11811
v 43.4462 30.7747 -1
vt -1.71048 0.11811
v 43.4462 30.7747 -4
vt -1.71048 -1.177e-016
f 131/372/56 133/373/56 139/374/56 140/375/56 

vt 1.69867 1.2116
vn 6.68949e-031 1.04134e-013 1
v 43.1462 22.5844 -1
vt 1.69867 0.889149
v 43.4462 22.5844 -1
vt 1.71048 0.889149
vt 1.71048 1.2116
f 133/376/57 141/377/57 142/378/57 139/379/57 

vt 1.69867 0.11811
vn 6.88612e-015 -1 1.04134e-013
v 43.1462 22.5844 -4
vt 1.69867 -8.63759e-017
v 43.4462 22.5844 -4
vt 1.71048 -8.63759e-017
vt 1.71048 0.11811
f 141/380/58 143/381/58 144/382/58 142/383/58 

vt 0.66213 0
vn 0.707107 -0.707107 7.37026e-014
vt 1.82986 0
vt 1.82986 0.11811
vt 0.66213 0.11811
f 98/384/59 143/385/59 141/386/59 99/387/59 

vt -1.69867 0.889149
f 98/254/4 112/279/4 143/388/4

f 143/388/4 112/279/4 131/339/4

vt -1.71048 1.2116
f 143/388/4 131/339/4 140/389/4

vt -1.71048 0.889149
f 143/388/4 140/389/4 144/390/4

vt 0.889149 0
vn 1 6.88612e-015 -7.17749e-028
vt 1.2116 0
vt 1.2116 0.11811
vt 0.889149 0.11811
f 144/391/60 140/392/60 139/393/60 142/394/60 

